<?xml version="1.0" encoding="utf-8"?>
<!-- Generator: Adobe Illustrator 27.6.1, SVG Export Plug-In . SVG Version: 6.00 Build 0)  -->
<svg version="1.1" id="Layer_1" xmlns="http://www.w3.org/2000/svg" xmlns:xlink="http://www.w3.org/1999/xlink" x="0px" y="0px"
	 viewBox="0 0 1800 630" style="enable-background:new 0 0 1800 630;" xml:space="preserve">
<style type="text/css">
	.st0{fill:#00B0F0;}
	.st1{fill:#9596AE;}
	.st2{fill:url(#SVGID_1_);}
	.st3{fill:url(#SVGID_00000134964656934703108110000000088343339243815585_);}
	.st4{fill:#FFFFFF;}
	.st5{fill:none;stroke:#9596AE;stroke-width:5;stroke-linecap:round;stroke-miterlimit:10;}
</style>
<g>
	<g id="Plugin_Logo_00000143588722170484654090000001453365823179829675_">
		<path class="st0" d="M1330.8,313.1v66.2h15.6v-66.2H1330.8z M1302.8,287.8h-16c-1.8,0-1.5,1.6-1.5,1.6c0.3,2.1,0.7,5.5,0.7,12.6
			c0,15.7-1.9,38.3-19.1,59.8l-1.2,1.5c0,0-10.4-72.4-10.5-73.7c0,0,0-1.6-1.5-1.6h-16.2c-1.5,0-1.5,1.6-1.5,1.6
			c-0.4,8.3-5,78-55.9,89.3c10.8,1.2,23.9-2.2,35.3-9.2c14.1-8.8,23.6-21.7,26.7-36.5c0,0,6.2,38.9,7,47.8v0.6l-0.4,0.3
			c-14.2,7.6-30.4,11.7-46.6,11.7c-40.1,0-75.5-23.7-91.1-59.9c9.2,42.6,47.2,73.6,91.5,73.6c51.8,0,82.6-43.3,88-74.2
			c0,0,7,45,7.1,46.4h21.2c-0.3-1.9-14.4-88.3-14.5-89.6c0,0,0-1.6-1.5-1.6V287.8z M1123.4,325.7c0-47.5,40.1-86.1,89.2-86.1
			c30.4,0,58.8,15.3,75.2,40.1c-12-33.8-45.6-57-83.1-57c-48.5,0-88,37.8-88,84.3c0,12.8,3.1,25.2,8.9,36.6
			c-1.3-5.8-2.2-11.9-2.2-17.8V325.7z M1495.2,322.6c-5.6-6.5-13.5-9.9-23-9.9c-9.6,0-17.8,3.1-24.3,9.3c-6.4,6.1-9.6,14.2-9.6,24.3
			c0,9.9,3.1,18,9.3,23.9c6.2,5.9,15.3,8.9,26.6,8.9c22,0,26.7-15.1,28.5-20l-5.6-1.8c-5,9.2-16.3,9.8-23,9.3
			c-4.7-0.3-9.1-1.9-12.5-4.3c-3.4-2.5-5.8-6.1-6.8-11.6l-0.3-2.1h49.3c-0.1-10.8-3-19.6-8.5-26V322.6z M1455.6,339.3
			c-0.7,0-0.7-0.7-0.7-1c0.6-3.9,2.1-6.8,4.7-9.5c3-3.1,7.6-4.9,12.5-4.9c4.5,0,8,1.3,11.1,3.9c2.5,2.2,4.3,5.3,5.3,9.6
			c0.1,0.4,0.4,1.8-0.7,1.8h-32.2V339.3z M1544.7,312.3c-18.7,0-25.4,11.4-27.4,16.8c0,0.1-0.7,1.9-0.7,1.9l6.2,2.1
			c0,0,4-11.6,19.9-10.8c16,0.6,14.1,13.8,14.1,15.9c-8.9-2.7-21.5-2.4-29.8,1.3c-10.4,4.7-12,14.2-11.6,21.2
			c0.4,10.4,9.6,17.7,21.5,18.2c10.7,0.6,15.4-1.8,19.9-6.1l-0.1,6.1h14.1v-17.4v-21.4v-3.7v-3.1c0.3-7.9-5.2-21.2-26-21.2V312.3z
			 M1556.6,363.7c0,1-0.3,1.8-1.2,2.2c-2.7,1.3-8.3,3.1-15.3,2.7c-7.3-0.6-10.1-5.8-10.5-8c-0.1-0.9-1.8-10.5,7.6-13.5
			c6.1-1.9,13.8-0.7,18,0.4c1.2,0.3,1.5,1,1.5,2.5v13.8V363.7z M1345.3,287.8h-12.9c-1.9,0-1.6,1.9-1.6,1.9c0,2.1,0,11.9,0,13.9
			h15.9v-14.1c0,0,0.1-1.6-1.5-1.6L1345.3,287.8z M1424.6,287.8h-13.2c-1.3,0-1.3,1.5-1.3,1.5v27.2l-1.9-1c-2.1-1-4.2-1.8-6.4-2.2
			c-2.2-0.4-4.9-0.6-7.9-0.6c-10.4,0-18.8,3-25.1,9.1c-6.1,5.9-9.3,14.5-9.3,25.1c0,9.3,2.7,17.2,7.9,23.4
			c5.2,6.1,12.8,9.2,22.7,9.2c14.2,0,19.9-8.6,19.9-8.6v8.3h16v-15.6c0-17.5,0-74,0-74S1425.9,287.8,1424.6,287.8z M1409.1,361.1
			c-1.5,1.3-3.4,2.4-5.8,3.3c-2.5,1-5.5,1.5-8.8,1.5c-5.3,0-9.6-1.8-12.8-5.3c-3.1-3.6-4.6-8.8-4.6-15.7c0-6.8,1.5-11.9,4.3-15
			c3-3.3,7.4-4.9,13.4-4.9c3.1,0,6.1,0.4,8.8,1.5c2.4,0.9,4.2,1.8,5.5,3c0.4,0.4,0.9,1.2,0.9,2.2v27.2c0,1-0.4,1.8-0.9,2.2V361.1z"
			/>
		<path class="st0" d="M1580.4,276.9c-5.5,0-9.6,4.2-9.6,9.6c0,5.3,4.2,9.6,9.6,9.6s9.6-4.2,9.6-9.6
			C1590,281.2,1585.8,276.9,1580.4,276.9z M1580.4,278.2c4.6,0,8.2,3.7,8.2,8.3c0,4.6-3.4,8.3-8.2,8.3c-4.6,0-8.2-3.7-8.2-8.3
			C1572.2,281.9,1575.6,278.2,1580.4,278.2z M1578.3,287.1h2.4l3.1,4.9h1.6l-3.3-4.9c1.5-0.3,2.8-1.2,2.8-3.1s-1-3.1-3.6-3.1h-4.3
			V292h1.3v-4.9H1578.3z M1578.3,285.9v-3.9h2.5c1.3,0,2.7,0.3,2.7,1.9c0,1.9-1.6,1.9-3.3,1.9h-1.8H1578.3z"/>
	</g>
	<g id="Homebridge">
		<g id="Text">
			<path class="st1" d="M136.2,471.8h29v-31.1H178v75.9h-12.7v-33.8h-29v33.8h-12.8v-75.9h12.8V471.8z"/>
			<path class="st1" d="M222.8,517.6c-16.9,0-28.4-10.2-28.4-34.1v-9.7c0-23.9,11.4-34.1,28.4-34.1s28.5,10.2,28.5,34.1v9.7
				C251.3,507.3,239.9,517.6,222.8,517.6z M207.2,483.5c0,16.4,5.5,23,15.6,23s15.7-6.6,15.7-23v-9.7c0-16.4-5.6-23-15.7-23
				s-15.6,6.6-15.6,23V483.5z"/>
			<path class="st1" d="M301.7,484.7l21.9-44h12.2v75.9h-12.3v-50.8l-17.4,36.2h-9L280,466.1v50.5h-12.3v-75.9h12.1L301.7,484.7z"/>
			<path class="st1" d="M401.8,440.7v11.1H368v20h30.5v11H368v22.8h33.8v11h-46.5v-75.9L401.8,440.7z"/>
			<path class="st1" d="M441,440.7c17.8,0,27,6.6,27,19.7c0.2,7.3-4.3,13.9-11.1,16.5c8.6,2.4,13.5,8.4,13.5,17.9
				c0,11.4-7.3,21.8-27,21.8h-26.8v-75.9H441z M429.3,471.7h12.4c9.5,0,13.4-4.3,13.4-10.6c0-5.9-3-9.5-15.1-9.5h-10.7L429.3,471.7z
				 M429.3,505.5h13.3c10.2,0,15-4.2,15-11.4c0-8-5.3-11.4-16.5-11.4h-11.8L429.3,505.5z"/>
			<path class="st1" d="M527.7,516.6l-14.6-30.8h-14.7v30.8h-12.8v-75.9h25.9c17.5,0,27.9,7.6,27.9,22.7c0,10.5-5,17.2-13.8,20.4
				l16.2,32.9H527.7z M510.6,474.8c10.8,0,16.1-2.9,16.1-11.4s-5.3-11.5-16.1-11.5h-12.2v23L510.6,474.8z"/>
			<path class="st1" d="M569.4,516.6h-12.8v-75.9h12.8V516.6z"/>
			<path class="st1" d="M589.9,516.6v-75.9h25.6c17,0,28.5,9.1,28.5,33.4v9c0,24.3-11.4,33.4-28.5,33.4L589.9,516.6z M631.2,483.1
				v-9c0-15.6-4.8-22.3-15.7-22.3h-12.9v53.8h12.9C626.4,505.6,631.2,498.7,631.2,483.1z"/>
			<path class="st1" d="M713.6,477.6v5.8c0,23.9-10.9,34.1-27.9,34.1s-28.4-10.2-28.4-34.1v-9.1c0-24.4,11.4-34.6,28.4-34.6
				c15.4,0,25.2,8.6,27.6,24.5H701c-1.9-8.8-6.7-13.4-15.3-13.4c-10.1,0-15.6,6.6-15.6,23v9.7c0,16.4,5.5,23,15.6,23
				c9.7,0,14.5-5.7,15.4-17.7H686v-11.1H713.6z"/>
			<path class="st1" d="M776.5,440.7v11.1h-33.8v20h30.5v11h-30.5v22.8h33.8v11H730v-75.9L776.5,440.7z"/>
		</g>
		<g id="Logo">
			
				<linearGradient id="SVGID_1_" gradientUnits="userSpaceOnUse" x1="450" y1="544.6854" x2="450" y2="244.6854" gradientTransform="matrix(1 0 0 -1 0 631.1653)">
				<stop  offset="0" style="stop-color:#57277C"/>
				<stop  offset="1" style="stop-color:#491F59"/>
			</linearGradient>
			<circle class="st2" cx="450" cy="236.5" r="150"/>
			
				<radialGradient id="SVGID_00000087369927147552292520000009418064558951441850_" cx="450" cy="394.6854" r="150" gradientTransform="matrix(1 0 0 -1 0 631.1653)" gradientUnits="userSpaceOnUse">
				<stop  offset="0" style="stop-color:#000000;stop-opacity:0"/>
				<stop  offset="1" style="stop-color:#000000;stop-opacity:0.1"/>
			</radialGradient>
			<circle style="fill:url(#SVGID_00000087369927147552292520000009418064558951441850_);" cx="450" cy="236.5" r="150"/>
			<path class="st4" d="M551.7,221.2h-0.2l-18.3-18.3c-0.6-0.7-1-1.6-1-2.5v-42.3c0-9-7.3-16.2-16.2-16.2h-11.5
				c-9,0-16.2,7.3-16.2,16.2v0.2l-27.1-26.2c-6.4-6.1-16.5-6-22.8,0.2L346.8,224c-6.3,6.3-6.3,16.6,0,22.9c0,0,0,0,0,0l0,0l8.7,8.7
				c6.3,6.3,16.5,6.3,22.9,0.1l70.5-69.4c1.4-1.4,3.6-1.4,5,0l69,69c1.4,1.4,1.4,3.6,0,5l-8.5,8.5c-1.4,1.4-3.6,1.4-5,0l-48.5-47
				c-6.4-6.2-16.5-6.1-22.8,0.2l-46.5,46.7c-6.3,6.3-6.3,16.6,0,22.9l8.6,8.6c6.3,6.3,16.5,6.3,22.9,0.1l25.1-24.8
				c1.4-1.4,3.6-1.4,5,0L478,300c1.4,1.4,1.4,3.6,0,5c0,0,0,0,0,0l-24.7,24.9c-0.1,0-0.2-0.1-0.3-0.1c-5.1,0-9.3,4.1-9.3,9.3
				c0,5.1,4.1,9.3,9.3,9.3c5.1,0,9.3-4.1,9.3-9.3v-0.2l24.8-24.8c6.4-6.3,6.4-16.6,0-23c0,0,0,0,0,0L487,291l-24.9-24.5
				c-6.3-6.2-16.5-6.2-22.8,0l-25.1,24.8c-1.4,1.4-3.6,1.4-5,0l-8.6-8.6c-1.4-1.4-1.4-3.6,0-5l46.5-46.7c1.4-1.4,3.6-1.4,5-0.1
				l48.5,47.1c6.4,6.1,16.5,6.1,22.8-0.2l8.5-8.5c6.3-6.3,6.3-16.6,0-22.9l-69.1-69.1c-6.3-6.3-16.5-6.3-22.9-0.1l-70.5,69.4
				c-1.4,1.4-3.6,1.4-5,0l-8.7-8.7c-1.4-1.4-1.4-3.6,0-5l91.7-91.7c1.4-1.4,3.6-1.4,5,0l48.6,47v-30.2c0-2,1.6-3.5,3.5-3.5H516
				c2,0,3.5,1.6,3.5,3.5v42.4c0,4.3,1.7,8.5,4.8,11.5l18.2,18.2c0,0.1-0.1,0.2-0.1,0.3c0,5.1,4.2,9.3,9.3,9.2c5.1,0,9.3-4.2,9.2-9.3
				C561,225.4,556.8,221.3,551.7,221.2L551.7,221.2z"/>
		</g>
	</g>
	<g id="Divider">
		<line class="st5" x1="998" y1="14.2" x2="902" y2="614.2"/>
	</g>
</g>
</svg>
